<svg xmlns="http://www.w3.org/2000/svg" width="1761" height="390" fill="none" viewBox="0 0 1761 390"><path fill="#f0fafc" d="M1432.39 148.611V64.979H1321.2V1.025h-83.63v63.954h-59.03v83.632h59.03v122.005c0 68.874 52.15 118.07 121.02 118.07h54.12v-83.633h-34.44c-34.44 0-57.07-19.678-57.07-54.115V148.611zm242.04 156.442v83.633h-122.01c-68.87 0-120.03-49.196-120.03-118.07V148.611h83.63v102.327c0 34.437 21.65 54.115 56.08 54.115zm-158.41-156.442V64.979h122c68.88 0 120.04 49.195 120.04 118.069v122.005h-83.63V202.727c0-34.437-21.65-54.116-56.08-54.116zM953.475 381.72h-86.753V65.104h86.753V101.2c16.464-25.33 49.395-43.06 90.555-43.06 76.62 0 122.21 55.724 122.21 138.044V381.72h-86.75V210.748c0-45.593-19.63-73.455-55.73-73.455-39.89 0-70.285 29.129-70.285 89.919z"/><path fill="#f0fafc" fill-rule="evenodd" d="M748.306 278.504h90.553c-18.997 63.956-81.687 110.182-162.108 110.182-96.884 0-165.907-69.656-165.907-165.907 0-94.351 70.289-164.64 166.54-164.64 93.086 0 169.707 66.489 165.274 185.537H595.697c3.8 37.361 31.662 69.655 85.487 69.655 30.395 0 56.991-13.298 67.122-34.827m-73.455-150.076c29.762 0 62.057 15.83 72.822 58.257H598.864c8.232-34.828 36.094-58.257 75.987-58.257" clip-rule="evenodd"/><path fill="#f0fafc" d="M3.062 381.72h86.752V227.212c0-60.79 25.963-89.919 63.324-89.919 34.194 0 49.392 28.495 49.392 75.354V381.72h86.752V227.212c0-60.79 25.963-89.919 63.324-89.919 34.194 0 49.392 28.495 49.392 75.354V381.72h86.753V198.083c0-85.486-43.06-139.944-118.415-139.944-36.094 0-78.521 18.997-98.151 58.257-18.997-36.727-51.925-58.257-98.151-58.257-38.627 0-67.122 18.363-84.22 43.06V65.104H3.062z"/></svg>