<svg xmlns="http://www.w3.org/2000/svg" width="220" height="220" fill="none" viewBox="0 0 220 220"><path fill="#510dc1" d="M110 220c60.751 0 110-49.249 110-110S170.751 0 110 0 0 49.249 0 110s49.249 110 110 110"/><path fill="#d9d9d9" stroke="url(#a)" stroke-width="36" d="M110 23c48.049 0 87 38.951 87 87s-38.951 87-87 87-87-38.951-87-87 38.951-87 87-87Z"/><path fill="#510dc1" d="M110 202c50.81 0 92-41.19 92-92s-41.19-92-92-92-92 41.19-92 92 41.19 92 92 92"/><path fill="url(#b)" d="M141.598 156v-10.093c-14.851-1.358-24.687-9.607-25.073-24.456h12.826c.289 8.832 5.593 12.519 12.247 13.587v-20.477c-15.719-3.202-23.24-8.928-23.24-21.156 0-10.87 9.161-18.633 23.24-19.41V64h7.329v10.093c15.43 1.553 22.855 10.48 23.337 23.194h-12.536c-.386-7.085-3.761-11.16-10.801-12.325v18.924C168.696 107.671 174 114.173 174 124.848c0 12.81-10.222 20.38-25.073 21.156V156zm-9.932-62.983c0 4.27 1.542 6.89 9.932 9.219V84.671c-6.075.68-9.932 3.785-9.932 8.346m17.261 42.312c7.04-.679 11.765-4.076 11.765-9.899 0-4.27-2.025-6.793-11.765-9.316z"/><path fill="url(#c)" d="m101.16 144.942-5.786-15.916H65.19l-5.786 15.916H46l26.809-69.874h15.043l27.098 69.874zm-31.92-27.076h22.084L80.33 87.296z"/><defs><linearGradient id="a" x1="26.875" x2="175.625" y1="18.125" y2="193.125" gradientUnits="userSpaceOnUse"><stop offset=".202" stop-color="#ff4b4b"/><stop offset=".5" stop-color="#75acff"/></linearGradient><linearGradient id="b" x1="145.263" x2="145.263" y1="64" y2="156" gradientUnits="userSpaceOnUse"><stop stop-color="#e2dbff"/><stop offset=".976" stop-color="#fbfaff"/></linearGradient><linearGradient id="c" x1="80.475" x2="80.475" y1="75.068" y2="144.942" gradientUnits="userSpaceOnUse"><stop stop-color="#e2dbff"/><stop offset=".976" stop-color="#fbfaff"/></linearGradient></defs></svg>