<svg xmlns="http://www.w3.org/2000/svg" width="220" height="220" fill="none" viewBox="0 0 220 220"><path fill="#510dc1" d="M110 220c60.751 0 110-49.249 110-110S170.751 0 110 0 0 49.249 0 110s49.249 110 110 110"/><path stroke="url(#a)" stroke-width="36" d="M110 23c48.049 0 87 38.951 87 87s-38.951 87-87 87-87-38.951-87-87 38.951-87 87-87Z"/><path fill="#510dc1" d="M110 202c50.81 0 92-41.19 92-92s-41.19-92-92-92-92 41.19-92 92 41.19 92 92 92"/><path fill="url(#b)" d="M140.579 156v-10.093c-15.319-1.358-25.464-9.607-25.862-24.456h13.229c.298 8.832 5.769 12.519 12.633 13.587v-20.477c-16.214-3.202-23.972-8.928-23.972-21.156 0-10.87 9.449-18.633 23.972-19.41V64h7.559v10.093c15.915 1.553 23.574 10.48 24.072 23.194h-12.931c-.398-7.085-3.88-11.16-11.141-12.325v18.924C168.529 107.671 174 114.173 174 124.848c0 12.81-10.544 20.38-25.862 21.156V156zm-10.246-62.983c0 4.27 1.592 6.89 10.246 9.219V84.671c-6.267.68-10.246 3.785-10.246 8.346m17.805 42.312c7.261-.679 12.135-4.076 12.135-9.899 0-4.27-2.089-6.793-12.135-9.316z"/><path fill="url(#c)" d="M46 144.942V75.068h31.93c17.406 0 25.364 8.346 25.364 20.574 0 6.988-4.078 12.907-11.14 16.789 5.868 2.523 8.355 6.988 9.35 12.713l2.984 19.798H90.761l-2.387-16.789c-1.094-7.57-4.775-10.869-12.135-10.869h-16.91v27.658zm13.329-38.139h16.91c8.952 0 13.229-3.688 13.229-10.384 0-6.794-4.277-10.481-13.23-10.481h-16.91z"/><defs><linearGradient id="a" x1="110" x2="110" y1="5" y2="215" gradientUnits="userSpaceOnUse"><stop stop-color="#1a9900"/><stop offset=".35" stop-color="#fef100"/><stop offset=".65" stop-color="#fef100"/><stop offset="1" stop-color="#1a9900"/></linearGradient><linearGradient id="b" x1="144.358" x2="144.358" y1="64" y2="156" gradientUnits="userSpaceOnUse"><stop stop-color="#e2dbff"/><stop offset=".976" stop-color="#fbfaff"/></linearGradient><linearGradient id="c" x1="75.244" x2="75.244" y1="75.068" y2="144.942" gradientUnits="userSpaceOnUse"><stop stop-color="#e2dbff"/><stop offset=".976" stop-color="#fbfaff"/></linearGradient></defs></svg>