<svg xmlns="http://www.w3.org/2000/svg" width="40" height="40" fill="none" viewBox="0 0 40 40"><path fill="#f7931a" d="M39.4 24.838c-2.672 10.715-13.524 17.235-24.24 14.563C4.45 36.731-2.07 25.877.602 15.164 3.271 4.448 14.123-2.073 24.835.598 35.55 3.27 42.071 14.123 39.4 24.838"/><path fill="#fff" fill-rule="evenodd" d="M28.82 17.15c.398-2.661-1.628-4.092-4.399-5.046l.899-3.606-2.195-.547-.875 3.51a96 96 0 0 0-1.758-.413l.881-3.534-2.193-.547-.9 3.605a72 72 0 0 1-1.4-.33l.002-.011-3.027-.756-.584 2.344s1.629.373 1.594.396c.89.222 1.05.81 1.023 1.277l-1.024 4.107c.061.016.14.038.228.073l-.063-.016-.169-.041-1.435 5.754c-.108.27-.384.675-1.005.521.022.032-1.595-.398-1.595-.398l-1.09 2.512 2.856.712q.47.119.928.239l.637.165-.909 3.646 2.193.547.899-3.608q.897.243 1.749.454l-.896 3.591 2.194.547.908-3.64c3.743.709 6.557.423 7.741-2.962.955-2.725-.047-4.297-2.016-5.322 1.434-.331 2.514-1.274 2.802-3.223m-5.014 7.032c-.623 2.5-4.536 1.467-6.327.994q-.242-.065-.428-.111l1.205-4.832c.15.038.333.079.54.125 1.852.416 5.647 1.267 5.01 3.824m-4.637-6.066c1.493.398 4.75 1.268 5.317-1.005.58-2.324-2.586-3.025-4.132-3.367a19 19 0 0 1-.452-.104l-1.093 4.382q.155.039.36.094" clip-rule="evenodd"/></svg>