<svg xmlns="http://www.w3.org/2000/svg" width="220" height="220" fill="none" viewBox="0 0 220 220"><path fill="#510dc1" d="M110 220c60.751 0 110-49.249 110-110S170.751 0 110 0 0 49.249 0 110s49.249 110 110 110"/><path stroke="url(#a)" stroke-width="36" d="M110 23c48.049 0 87 38.951 87 87s-38.951 87-87 87-87-38.951-87-87 38.951-87 87-87Z"/><path fill="#510dc1" d="M110 202c50.81 0 92-41.19 92-92s-41.19-92-92-92-92 41.19-92 92 41.19 92 92 92"/><path fill="url(#b)" d="M143.648 159v-10.641c-15.745-1.433-26.173-10.13-26.582-25.785h13.598c.307 9.311 5.93 13.199 12.984 14.325v-21.59c-16.665-3.377-24.639-9.413-24.639-22.306 0-11.46 9.712-19.645 24.639-20.464V62h7.77v10.641c16.358 1.637 24.231 11.051 24.742 24.455h-13.291c-.409-7.47-3.987-11.767-11.451-12.995v19.953C172.377 108.044 178 114.9 178 126.155c0 13.506-10.837 21.487-26.582 22.306V159zm-10.53-66.406c0 4.502 1.635 7.265 10.53 9.72v-18.52c-6.441.717-10.53 3.99-10.53 8.8m18.3 44.612c7.464-.717 12.473-4.298 12.473-10.437 0-4.502-2.147-7.162-12.473-9.823z"/><path fill="url(#c)" d="M78.397 148.57C54.473 148.57 42 131.175 42 110.507c0-20.67 12.473-38.064 36.397-38.064 18.096 0 29.955 11.563 32.409 27.013H96.902c-1.84-8.697-8.588-14.734-18.505-14.734-15.438 0-22.084 11.869-22.084 25.785 0 13.915 6.646 25.784 22.084 25.784 10.632 0 17.278-7.06 18.914-16.678h13.802c-1.943 16.474-13.802 28.957-32.716 28.957"/><defs><linearGradient id="a" x1="110" x2="110" y1="5" y2="215" gradientUnits="userSpaceOnUse"><stop stop-color="red"/><stop offset=".51" stop-color="#fff"/><stop offset="1" stop-color="red"/></linearGradient><linearGradient id="b" x1="147.533" x2="147.533" y1="62" y2="159" gradientUnits="userSpaceOnUse"><stop stop-color="#e2dbff"/><stop offset=".976" stop-color="#fbfaff"/></linearGradient><linearGradient id="c" x1="76.556" x2="76.556" y1="72.443" y2="148.57" gradientUnits="userSpaceOnUse"><stop stop-color="#e2dbff"/><stop offset=".976" stop-color="#fbfaff"/></linearGradient></defs></svg>