<svg xmlns="http://www.w3.org/2000/svg" width="40" height="40" fill="none" viewBox="0 0 40 40"><g clip-path="url(#a)"><path fill="#fcff52" d="M20 40c11.046 0 20-8.954 20-20S31.046 0 20 0 0 8.954 0 20s8.954 20 20 20"/><path fill="#000" fill-rule="evenodd" d="M31.189 8.739H8.81v22.523h22.38V23.4h-3.714c-1.28 2.868-4.162 4.865-7.46 4.865-4.545 0-8.227-3.737-8.227-8.28 0-4.544 3.682-8.25 8.227-8.25 3.362 0 6.244 2.063 7.524 4.994h3.65V8.74z" clip-rule="evenodd"/></g><defs><clipPath id="a"><path fill="#fff" d="M0 0h40v40H0z"/></clipPath></defs></svg>