<svg xmlns="http://www.w3.org/2000/svg" width="220" height="220" fill="none" viewBox="0 0 220 220"><path fill="#510dc1" d="M110 220c60.751 0 110-49.249 110-110S170.751 0 110 0 0 49.249 0 110s49.249 110 110 110"/><path stroke="url(#a)" stroke-width="36" d="M110 23c48.049 0 87 38.951 87 87s-38.951 87-87 87-87-38.951-87-87 38.951-87 87-87Z"/><path fill="#510dc1" d="M110 202c50.81 0 92-41.19 92-92s-41.19-92-92-92-92 41.19-92 92 41.19 92 92 92"/><path fill="#e6e0ff" d="M147.598 139.067v-56.13h23.234c13.42 0 20.168 7.874 20.168 18.164 0 10.213-6.748 18.087-20.168 18.087h-12.959v19.879zm10.275-29h12.423c6.978 0 10.275-3.353 10.275-8.966s-3.297-9.043-10.275-9.043h-12.423zM113.063 140c-17.944 0-27.3-13.253-27.3-29s9.356-29 27.3-29c17.867 0 27.299 13.253 27.299 29s-9.432 29-27.299 29m-16.564-29c0 10.602 4.985 19.645 16.564 19.645s16.563-9.043 16.563-19.645-4.984-19.645-16.563-19.645S96.499 100.398 96.499 111m-40.2 29C38.355 140 29 126.747 29 111s9.355-29 27.299-29c13.573 0 22.468 8.81 24.308 20.581H70.178c-1.38-6.627-6.44-11.226-13.88-11.226-11.578 0-16.562 9.043-16.562 19.645s4.984 19.645 16.563 19.645c7.975 0 12.96-5.379 14.186-12.707h10.352C79.38 130.489 70.485 140 56.3 140"/><defs><linearGradient id="a" x1="110" x2="110" y1="5" y2="215" gradientUnits="userSpaceOnUse"><stop stop-color="#feca00"/><stop offset=".41" stop-color="#feca00"/><stop offset="1" stop-color="red"/></linearGradient></defs></svg>