<svg xmlns="http://www.w3.org/2000/svg" width="40" height="40" fill="none" viewBox="0 0 40 40"><g clip-path="url(#a)"><path fill="#1aa3ff" d="M20 40c11.046 0 20-8.954 20-20S31.046 0 20 0 0 8.954 0 20s8.954 20 20 20"/><path fill="#fff" d="m12.9 20.918-.725.978a.51.51 0 0 0 .455.74h2.371c.75 3.1 2.91 5.214 5.803 5.17 2.054 0 3.603-1.021 4.636-3.055a.51.51 0 0 0-.249-.695l-1.13-.505a.51.51 0 0 0-.664.238c-.534 1.083-1.421 1.774-2.593 1.774-1.061 0-1.912-.52-2.564-1.57a5.8 5.8 0 0 1-.612-1.357h3.037a.51.51 0 0 0 .455-.28l.725-.978a.51.51 0 0 0-.456-.74h-4.103a12 12 0 0 1-.004-1.292h3.383a.51.51 0 0 0 .455-.28l.725-.978a.51.51 0 0 0-.456-.74h-3.765c.55-1.796 1.7-2.973 3.18-2.95 1.127 0 2.003.617 2.564 1.628a.505.505 0 0 0 .646.21l1.137-.503a.51.51 0 0 0 .244-.71c-1.05-1.894-2.58-2.846-4.591-2.846-1.835 0-3.305.729-4.421 2.177-.653.853-1.107 1.854-1.376 2.994h-1.652a.51.51 0 0 0-.456.28l-.724.978a.51.51 0 0 0 .455.74h2.104a13 13 0 0 0-.008 1.292h-1.37a.51.51 0 0 0-.457.28"/><path fill="#fff" d="M6.836 19.157c.412-6.575 5.705-11.884 12.278-12.315 3.456-.227 6.65.89 9.12 2.873a.63.63 0 0 0 .813-.021l.97-.865A.63.63 0 0 0 30 7.873a15.66 15.66 0 0 0-10.68-3.587c-8.05.34-14.6 6.815-15.028 14.86a15.65 15.65 0 0 0 2.522 9.421.63.63 0 0 0 .946.122l.968-.863a.63.63 0 0 0 .114-.803 13.1 13.1 0 0 1-2.006-7.866m26.344-7.725a.63.63 0 0 0-.946-.122l-.968.864a.63.63 0 0 0-.114.803 13.1 13.1 0 0 1 2.006 7.866c-.412 6.574-5.705 11.884-12.279 12.315-3.455.226-6.65-.89-9.12-2.874a.63.63 0 0 0-.813.021l-.969.865a.63.63 0 0 0 .016.956 15.66 15.66 0 0 0 10.682 3.587c8.05-.34 14.6-6.815 15.027-14.861a15.65 15.65 0 0 0-2.522-9.42"/></g><defs><clipPath id="a"><path fill="#fff" d="M0 0h40v40H0z"/></clipPath></defs></svg>