<svg xmlns="http://www.w3.org/2000/svg" width="220" height="220" fill="none" viewBox="0 0 220 220"><path fill="#510dc1" d="M110 220c60.751 0 110-49.249 110-110S170.751 0 110 0 0 49.249 0 110s49.249 110 110 110"/><path stroke="url(#a)" stroke-width="36" d="M110 23c48.049 0 87 38.951 87 87s-38.951 87-87 87-87-38.951-87-87 38.951-87 87-87Z"/><path fill="#510dc1" d="M110 202c50.81 0 92-41.19 92-92s-41.19-92-92-92-92 41.19-92 92 41.19 92 92 92"/><path fill="url(#b)" d="M112.07 165c-25.534 0-40.09-17.303-44.37-40.28H55v-11.337h11.555c-.144-1.339-.144-2.536-.144-3.883 0-2.234.144-4.326.288-6.418H55V91.745h13.267C73.117 69.965 87.384 54 112.062 54s39.089 16.86 42.514 37.443h-19.261c-2.568-10.743-9.418-19.546-23.253-19.546S91.656 80.106 88.52 91.736h26.39v11.337H86.663c-.144 2.092-.288 4.175-.288 6.418 0 1.339 0 2.535.144 3.883h28.391v11.337H87.808c2.857 12.978 10.13 22.374 24.254 22.374 14.835 0 21.541-10.292 23.821-22.374H155C152.287 146.793 138.343 165 111.944 165z"/><defs><linearGradient id="a" x1="23.9" x2="233.2" y1="45.6" y2="222.35" gradientUnits="userSpaceOnUse"><stop offset=".45" stop-color="#75aeff"/><stop offset=".6" stop-color="#ffff73"/></linearGradient><linearGradient id="b" x1="105" x2="105" y1="54" y2="165" gradientUnits="userSpaceOnUse"><stop stop-color="#e2dbff"/><stop offset=".976" stop-color="#fbfaff"/></linearGradient></defs></svg>