<svg xmlns="http://www.w3.org/2000/svg" width="220" height="220" fill="none" viewBox="0 0 220 220"><path fill="#510dc1" d="M110 220c60.751 0 110-49.249 110-110S170.751 0 110 0 0 49.249 0 110s49.249 110 110 110"/><path stroke="url(#a)" stroke-width="36" d="M110 23c48.049 0 87 38.951 87 87s-38.951 87-87 87-87-38.951-87-87 38.951-87 87-87Z"/><path fill="#510dc1" d="M110 202c50.81 0 92-41.19 92-92s-41.19-92-92-92-92 41.19-92 92 41.19 92 92 92"/><path fill="url(#b)" d="M104.073 164.985v-14.296c-11.184-1.112-20.36-4.756-27.291-10.849C68.301 132.35 64 121.951 64 108.927c0-14.078 4.892-25.087 14.533-32.723 6.906-5.482 15.5-8.74 25.532-9.7V55h16.994v11.802c12.095 1.49 21.424 5.81 27.731 12.827 4.436 5.018 6.858 10.137 7.186 15.206l.024.385h-22.135l-.088-.247c-1.367-3.781-3.133-6.668-5.259-8.58-1.943-1.746-4.453-3.062-7.459-3.92v52.029c2.926-.945 5.404-2.399 7.379-4.326 2.126-2.022 3.925-5.113 5.339-9.185l.088-.254h21.991l-.088.429c-1.862 8.806-6.691 16.078-14.333 21.597-5.611 4.028-12.462 6.617-20.368 7.708V165h-16.994zm0-82.847c-4.245 1.098-7.842 3.236-10.704 6.378-4.412 4.835-6.659 11.794-6.659 20.68 0 8.887 2.358 15.613 7.019 20.005 2.925 2.763 6.403 4.683 10.344 5.708V82.131z"/><defs><linearGradient id="a" x1="110" x2="110" y1="5" y2="215" gradientUnits="userSpaceOnUse"><stop stop-color="red"/><stop offset=".413" stop-color="#fef100"/><stop offset=".639" stop-color="#fef100"/><stop offset="1" stop-color="#6ddd11"/></linearGradient><linearGradient id="b" x1="110" x2="110" y1="55" y2="165" gradientUnits="userSpaceOnUse"><stop stop-color="#e2dbff"/><stop offset=".976" stop-color="#fbfaff"/></linearGradient></defs></svg>