<svg xmlns="http://www.w3.org/2000/svg" width="220" height="220" fill="none" viewBox="0 0 220 220"><path fill="#510dc1" d="M110 220c60.751 0 110-49.249 110-110S170.751 0 110 0 0 49.249 0 110s49.249 110 110 110"/><path fill="url(#a)" d="M110 215c57.99 0 105-47.01 105-105S167.99 5 110 5 5 52.01 5 110s47.01 105 105 105"/><path fill="#510dc1" d="M110 202c50.81 0 92-41.19 92-92s-41.19-92-92-92-92 41.19-92 92 41.19 92 92 92"/><path fill="url(#b)" d="M156 60h-25.56l-45.93 47.64V60H64v100h20.51v-28.472l16.853-16.807L131.42 160h8.302l-33.956-49.721 5.239-5.279 37.557 55H156l-40.592-59.441z"/><defs><linearGradient id="a" x1="110" x2="110" y1="5" y2="215" gradientUnits="userSpaceOnUse"><stop stop-color="#1a9900"/><stop offset="1" stop-color="red"/></linearGradient><linearGradient id="b" x1="110" x2="110" y1="60" y2="160" gradientUnits="userSpaceOnUse"><stop stop-color="#e2dbff"/><stop offset=".976" stop-color="#fbfaff"/></linearGradient></defs></svg>