<svg xmlns="http://www.w3.org/2000/svg" width="220" height="220" fill="none" viewBox="0 0 220 220"><path fill="#510dc1" d="M110 220c60.751 0 110-49.249 110-110S170.751 0 110 0 0 49.249 0 110s49.249 110 110 110"/><path stroke="url(#a)" stroke-width="36" d="M110 23c48.049 0 87 38.951 87 87s-38.951 87-87 87-87-38.951-87-87 38.951-87 87-87Z"/><path fill="#510dc1" d="M110 202c50.81 0 92-41.19 92-92s-41.19-92-92-92-92 41.19-92 92 41.19 92 92 92"/><path fill="url(#b)" d="M75 166v-39.021H64v-10.882h11v-11.815H64V93.399h11V55h22.833l14 38.4h16.834V55h16.5v38.4H156v10.882h-10.833v11.815H156v10.882h-10.833V166h-23l-14.334-39.021h-16.5V166zm16.333-49.903h12.834L100 104.282h-9zM129 142.681h.833l-.666-15.702h-5.5zM90.833 93.399h5.5l-5.666-16.634H90zM120 116.097h9l-.333-11.815h-12.834z"/><defs><linearGradient id="a" x1="110" x2="110" y1="5" y2="215" gradientUnits="userSpaceOnUse"><stop stop-color="#02c66a"/><stop offset=".35" stop-color="#fff"/><stop offset=".65" stop-color="#fff"/><stop offset="1" stop-color="#02c66a"/></linearGradient><linearGradient id="b" x1="110" x2="110" y1="55" y2="166" gradientUnits="userSpaceOnUse"><stop stop-color="#e2dbff"/><stop offset=".976" stop-color="#fbfaff"/></linearGradient></defs></svg>