<svg xmlns="http://www.w3.org/2000/svg" width="220" height="220" fill="none" viewBox="0 0 220 220"><path fill="#510dc1" d="M110 220c60.751 0 110-49.249 110-110S170.751 0 110 0 0 49.249 0 110s49.249 110 110 110"/><path stroke="url(#a)" stroke-width="36" d="M110 23c48.049 0 87 38.951 87 87s-38.951 87-87 87-87-38.951-87-87 38.951-87 87-87Z"/><path stroke="url(#b)" stroke-width="36" d="M110 23c48.049 0 87 38.951 87 87s-38.951 87-87 87-87-38.951-87-87 38.951-87 87-87Z"/><path fill="#510dc1" d="M110 202c50.81 0 92-41.19 92-92s-41.19-92-92-92-92 41.19-92 92 41.19 92 92 92"/><path fill="url(#c)" d="M112.833 60q16.834 0 26.334 5.857 9.5 5.714 12.666 16.143H162v9.143h-8.667q.167 1 .167 2V95q0 1.571-.167 3.143a26 26 0 0 1-.166 3H162v9h-11.167q-2.5 6.429-8 11.428-5.333 5-14 8-8.666 2.858-21.333 2.858H102V162H81.333v-51.857H70v-9h11.333v-10H70V82h11.333V60zm15.834 50.143H102v7.571h5q7.833 0 13.333-1.714 5.5-1.857 8.334-5.857m3.666-19H102v10h30.167a10.2 10.2 0 0 0 .333-2.572V93.43q0-1.143-.167-2.286M112 74.714h-10V82h27.5q-2.166-3.571-6.5-5.429-4.334-1.857-11-1.857"/><defs><linearGradient id="a" x1="110" x2="110" y1="5" y2="215" gradientUnits="userSpaceOnUse"><stop stop-color="red"/><stop offset="1" stop-color="#569cff"/></linearGradient><linearGradient id="b" x1="215" x2="5" y1="110" y2="110" gradientUnits="userSpaceOnUse"><stop offset=".5" stop-color="#fff" stop-opacity="0"/><stop offset="1" stop-color="#fff"/></linearGradient><linearGradient id="c" x1="116" x2="116" y1="60" y2="162" gradientUnits="userSpaceOnUse"><stop stop-color="#e2dbff"/><stop offset=".976" stop-color="#fbfaff"/></linearGradient></defs></svg>