<svg xmlns="http://www.w3.org/2000/svg" width="40" height="40" fill="none" viewBox="0 0 40 40"><g clip-path="url(#a)"><path fill="#89bd3a" d="M20 0c11.047 0 20 8.955 20 20 0 11.047-8.953 20-20 20C8.955 40 0 31.046 0 20S8.955 0 20 0"/><path fill="#fefefd" d="M20.738 21.412h7.6c.162 0 .238 0 .25-.212q.093-1.161 0-2.325c0-.15-.075-.212-.237-.212H13.226c-.187 0-.238.062-.238.237v2.225c0 .287 0 .287.3.287zm7.002-5.35a.24.24 0 0 0 0-.174 5 5 0 0 0-.452-.787 6.4 6.4 0 0 0-.925-1.163 3 3 0 0 0-.576-.563 9 9 0 0 0-3.75-1.9 9.3 9.3 0 0 0-2.125-.225H13.2c-.187 0-.213.075-.213.238v4.437c0 .187 0 .238.238.238H27.65s.125-.026.15-.1h-.061m0 7.95a3 3 0 0 0-.64 0h-13.86c-.187 0-.25 0-.25.25v4.339c0 .2 0 .25.25.25h6.4q.46.034.912-.062a9.5 9.5 0 0 0 2.714-.6q.477-.166.911-.425h.088a8.12 8.12 0 0 0 3.487-3.511s.088-.19-.01-.239zM10.476 31.1v-6.912c0-.163 0-.187-.2-.187H7.565c-.15 0-.212 0-.212-.2v-2.375h2.9c.161 0 .224 0 .224-.213v-2.35c0-.15 0-.187-.2-.187H7.565c-.15 0-.212 0-.212-.2v-2.2c0-.137 0-.174.2-.174h2.687c.187 0 .237 0 .237-.237V9.127c0-.2 0-.25.25-.25h9.375q1.02.04 2.025.225c1.378.255 2.702.747 3.912 1.45a11 11 0 0 1 2.2 1.7q.743.772 1.338 1.662c.393.6.72 1.242.976 1.913a.325.325 0 0 0 .373.263h2.238c.287 0 .287 0 .3.275v2.05c0 .2-.075.25-.276.25h-1.725c-.175 0-.225 0-.212.226a13 13 0 0 1 0 2.286c0 .213 0 .238.238.238h1.974c.087.113 0 .225 0 .338q.018.219 0 .437v1.513c0 .212-.062.275-.25.275H30.85a.313.313 0 0 0-.363.238 10 10 0 0 1-2.625 3.825q-.638.574-1.337 1.075c-.5.288-.988.587-1.5.825-.945.425-1.935.738-2.951.937a15.4 15.4 0 0 1-2.925.237h-8.675v-.012z"/></g><defs><clipPath id="a"><path fill="#fff" d="M0 0h40v40H0z"/></clipPath></defs></svg>