<svg width="40" height="40" viewBox="0 0 40 40" fill="none" xmlns="http://www.w3.org/2000/svg">
<g clip-path="url(#clip0_4004_57033)">
<path d="M20 40C31.0457 40 40 31.0457 40 20C40 8.9543 31.0457 0 20 0C8.9543 0 0 8.9543 0 20C0 31.0457 8.9543 40 20 40Z" fill="white"/>
<path d="M11.7959 18.5784L11.572 18.9219C9.04657 22.7961 9.61063 27.8698 12.9281 31.1203C14.8798 33.0326 17.4377 33.9889 19.9956 33.9891C19.9956 33.9891 19.9956 33.9891 11.7959 18.5784Z" fill="#00A3FF"/>
<path opacity="0.6" d="M19.9931 23.2622L11.7935 18.5784C19.9931 33.9891 19.9931 33.9891 19.9931 33.9891C19.9931 30.6328 19.9931 26.7868 19.9931 23.2622Z" fill="#00A3FF"/>
<path opacity="0.6" d="M28.2041 18.5784L28.428 18.9219C30.9535 22.7961 30.3894 27.8698 27.0719 31.1203C25.1203 33.0326 22.5624 33.9889 20.0044 33.9891C20.0044 33.9891 20.0044 33.9891 28.2041 18.5784Z" fill="#00A3FF"/>
<path opacity="0.2" d="M20.0034 23.2622L28.2031 18.5784C20.0035 33.9891 20.0034 33.9891 20.0034 33.9891C20.0034 30.6328 20.0034 26.7868 20.0034 23.2622Z" fill="#00A3FF"/>
<path opacity="0.2" d="M20.0063 12.8V20.8781L27.0695 16.8417L20.0063 12.8Z" fill="#00A3FF"/>
<path opacity="0.6" d="M20.0042 12.8L12.936 16.8415L20.0042 20.8781V12.8Z" fill="#00A3FF"/>
<path d="M20.0042 6.00586L12.936 16.8437L20.0042 12.7908V6.00586Z" fill="#00A3FF"/>
<path opacity="0.6" d="M20.0063 12.7891L27.0749 16.8421L20.0063 5.99887V12.7891Z" fill="#00A3FF"/>
</g>
<defs>
<clipPath id="clip0_4004_57033">
<rect width="40" height="40" fill="white"/>
</clipPath>
</defs>
</svg>
