<svg xmlns="http://www.w3.org/2000/svg" width="40" height="40" fill="none" viewBox="0 0 40 40"><g clip-path="url(#a)"><path fill="#fff" d="M20 40c11.046 0 20-8.954 20-20S31.046 0 20 0 0 8.954 0 20s8.954 20 20 20"/><path fill="#00a3ff" d="m11.796 18.578-.224.344c-2.525 3.874-1.961 8.948 1.356 12.198a10.07 10.07 0 0 0 7.068 2.87z"/><path fill="#00a3ff" d="m19.993 23.262-8.2-4.684 8.2 15.411zm8.211-4.684.224.344c2.525 3.874 1.961 8.948-1.356 12.198a10.07 10.07 0 0 1-7.068 2.87z" opacity=".6"/><path fill="#00a3ff" d="m20.003 23.262 8.2-4.684-8.2 15.411zm.003-10.462v8.078l7.064-4.036z" opacity=".2"/><path fill="#00a3ff" d="m20.004 12.8-7.068 4.041 7.068 4.037z" opacity=".6"/><path fill="#00a3ff" d="m20.004 6.006-7.068 10.838 7.068-4.053z"/><path fill="#00a3ff" d="m20.006 12.79 7.069 4.052L20.006 6z" opacity=".6"/></g><defs><clipPath id="a"><path fill="#fff" d="M0 0h40v40H0z"/></clipPath></defs></svg>