<svg xmlns="http://www.w3.org/2000/svg" width="40" height="40" fill="none" viewBox="0 0 40 40"><path fill="#2775ca" d="M20 40c11.083 0 20-8.917 20-20S31.083 0 20 0 0 8.917 0 20s8.917 20 20 20"/><path fill="#fff" d="M25.499 23.166c0-2.917-1.75-3.917-5.25-4.333-2.5-.334-3-1-3-2.167s.833-1.917 2.5-1.917c1.5 0 2.333.5 2.75 1.75.083.25.333.417.583.417h1.333a.57.57 0 0 0 .584-.583v-.084a4.16 4.16 0 0 0-3.75-3.416v-2c0-.334-.25-.584-.667-.667h-1.25c-.333 0-.583.25-.667.667v1.916c-2.5.334-4.083 2-4.083 4.084 0 2.75 1.667 3.833 5.167 4.25 2.333.416 3.083.916 3.083 2.25 0 1.333-1.167 2.25-2.75 2.25-2.167 0-2.917-.917-3.167-2.167-.083-.333-.333-.5-.583-.5h-1.417a.57.57 0 0 0-.583.583v.084c.333 2.083 1.667 3.583 4.417 4v2c0 .333.25.583.666.666h1.25c.334 0 .584-.25.667-.666v-2c2.5-.417 4.167-2.167 4.167-4.417"/><path fill="#fff" fill-rule="evenodd" d="M8.335 15.916c-2.417 6.417.917 13.667 7.417 16 .25.167.5.5.5.75v1.167c0 .166 0 .25-.084.333-.083.334-.416.5-.75.334a14.99 14.99 0 0 1-9.75-9.75c-2.5-7.917 1.834-16.334 9.75-18.834.084-.083.25-.083.334-.083.333.083.5.333.5.666v1.167c0 .417-.167.667-.5.833-3.417 1.25-6.167 3.917-7.417 7.417M23.833 6.25c.084-.334.417-.5.75-.334 4.584 1.5 8.25 5.084 9.75 9.834 2.5 7.916-1.833 16.333-9.75 18.833-.083.083-.25.083-.333.083-.333-.083-.5-.333-.5-.666v-1.167c0-.417.167-.667.5-.833 3.417-1.25 6.167-3.917 7.417-7.417 2.416-6.417-.917-13.667-7.417-16-.25-.167-.5-.5-.5-.833V6.583c0-.167 0-.25.083-.333" clip-rule="evenodd"/></svg>