<svg xmlns="http://www.w3.org/2000/svg" width="40" height="40" fill="none" viewBox="0 0 40 40"><path fill="#26a17b" d="M39.397 24.838c-2.671 10.715-13.523 17.235-24.239 14.563C4.448 36.731-2.073 25.877.6 15.164 3.269 4.448 14.121-2.073 24.833.598 35.548 3.27 42.07 14.123 39.397 24.838"/><path fill="#fff" fill-rule="evenodd" d="M22.53 22.267c-.14.011-.871.055-2.501.055-1.297 0-2.217-.04-2.54-.055-5.01-.22-8.749-1.092-8.749-2.136s3.74-1.915 8.75-2.14V21.4c.327.023 1.265.079 2.561.079 1.556 0 2.335-.065 2.475-.078v-3.406c5 .223 8.73 1.095 8.73 2.137s-3.73 1.914-8.73 2.135zm0-4.625v-3.049h6.977V9.944H10.512v4.65h6.976v3.047c-5.67.26-9.934 1.383-9.934 2.729s4.264 2.468 9.934 2.73v9.769h5.041v-9.773c5.657-.26 9.914-1.383 9.914-2.727 0-1.345-4.253-2.467-9.913-2.728" clip-rule="evenodd"/></svg>