<svg xmlns="http://www.w3.org/2000/svg" width="220" height="220" fill="none" viewBox="0 0 220 220"><path fill="#510dc1" d="M110 220c60.751 0 110-49.249 110-110S170.751 0 110 0 0 49.249 0 110s49.249 110 110 110"/><path fill="#d9d9d9" stroke="url(#a)" stroke-width="36" d="M110 23c48.049 0 87 38.951 87 87s-38.951 87-87 87-87-38.951-87-87 38.951-87 87-87Z"/><path fill="#510dc1" d="M110 202c50.81 0 92-41.19 92-92s-41.19-92-92-92-92 41.19-92 92 41.19 92 92 92"/><path fill="url(#b)" d="M155.152 74.046c-1.398-1.124-19.847.159-19.847.159-2.937.543-3.021-1.321-3.021-1.321l-.225-.926s-4.391-24.83-24.238-25.954c0 0-13.985-.596-26.572 12.633 0 0-8.698 9.145-10.474 12.91a4.36 4.36 0 0 1-2.797 1.588s-17.745 6.605-20.18 8.309-1.691 3.633-1.691 3.633c.056 2.486 1.028 4.874 2.748 6.753s4.082 3.132 6.677 3.542c0 0 1.832.622 7.565-5.417l6.995-6.2s5.484 15.212 6.307 15.952 1.58 1.693 5.721 1.241c4.138-.448 9.257-3.477 9.634-7.93 0 0 .434-.98-2.028-3.238 0 0-11.41-13.081-11.708-13.373-.293-.293-.823-.885.237-2.126 1.065-1.241 11.55-16.661 25.175-17.705 0 0 8.015-.953 9.497 8.245 0 0-3.957-1.256-5.062-.634-1.105.623-1.888 1.283-1.523 4.111v4.73c0 .501-.225 1.693-3.021 1.177 0 0-18.5-1.321-19.843-.16s-.992 1.534.237 3.08l18.32 22.768a7.9 7.9 0 0 0-2.808 3.359 7.4 7.4 0 0 0-.506 4.252c.55 3.117 3.182 4.582 5.094 5.242 1.318.456 2.925-.019 4.122.672.314.182.551.482.599.968.169 1.705 1.679 7.292 1.595 8.298s.293 1.321-2.306 1.667c-2.6.342-17.063 1.215-18.18 5.481l15.195.52c1.976.069 4.094.297 5.452 1.656a6.24 6.24 0 0 1 1.506 2.41l.474 5.854s.02.33 0 .516a1.1 1.1 0 0 1-.651.888c-.18.084-.482.141-.482.141l-1.663.079s-10.265.528-12.085 5.284l8.863.258c2.583.076 6.07.065 6.729 2.426q.055.201.073.425c.112 1.929.096 4.981.096 4.981s0 .899-1.844.899-8.839 1.507-9.397 5.285c0 0 9.634.106 9.791.17.57.186 1.068.524 1.438.976.731.896.86 2.126.747 3.249a5 5 0 0 1-.181.915c-.16.543-.586 1.143-.928 1.602a3.4 3.4 0 0 0-.518.923c-.289.74-.667 2.042-.12 2.79 1.229 1.321 4.194 1.981 7.147 1.917s5.902-.57 7.131-1.917c.796-1.082-.362-3.345-.362-3.345s-.699-.937-.895-1.176a5 5 0 0 1-.378-3.394 2.83 2.83 0 0 1 .631-1.564c.365-.452.867-.79 1.438-.976.225-.064 9.859-.17 9.859-.17-.558-3.808-7.581-5.285-9.397-5.285s-1.776-.846-1.776-.846 0-3.052.097-4.981c.048-.964.775-1.651 1.494-2.091.876-.539 1.945-.657 2.989-.683l11.193-.278c-1.82-4.809-12.085-5.284-12.085-5.284l-1.663-.079s-.301-.061-.482-.145a1.2 1.2 0 0 1-.45-.364 1.07 1.07 0 0 1-.201-.524c-.02-.19 0-.512 0-.512l.249-3.041c.153-1.871.374-3.861 1.736-5.223 1.362-1.359 3.471-1.591 5.448-1.655l15.194-.521c-1.161-4.266-15.62-5.113-18.179-5.485-2.56-.368-2.226-.66-2.307-1.663-.084-1.005 1.399-6.605 1.608-8.298.032-.25.112-.455.229-.615.98-1.37 3.366-.565 4.977-1.207 1.84-.732 4.094-2.202 4.596-5.06a7.35 7.35 0 0 0-.498-4.252 7.84 7.84 0 0 0-2.804-3.359l18.179-22.769c1.286-1.651 1.624-2.061.294-3.185z"/><defs><linearGradient id="a" x1="184.375" x2="31.25" y1="188.75" y2="18.125" gradientUnits="userSpaceOnUse"><stop offset=".242" stop-color="red"/><stop offset=".768" stop-color="#1a9900"/></linearGradient><linearGradient id="b" x1="101" x2="101" y1="46" y2="174" gradientUnits="userSpaceOnUse"><stop stop-color="#e2dbff"/><stop offset=".976" stop-color="#fbfaff"/></linearGradient></defs></svg>