<svg xmlns="http://www.w3.org/2000/svg" width="220" height="220" fill="none" viewBox="0 0 220 220"><path fill="#510dc1" d="M110 220c60.751 0 110-49.249 110-110S170.751 0 110 0 0 49.249 0 110s49.249 110 110 110"/><path stroke="url(#a)" stroke-width="36" d="M110 23c48.049 0 87 38.951 87 87s-38.951 87-87 87-87-38.951-87-87 38.951-87 87-87Z"/><path fill="#510dc1" d="M110 202c50.81 0 92-41.19 92-92s-41.19-92-92-92-92 41.19-92 92 41.19 92 92 92"/><path fill="url(#b)" d="M151.623 133.835c-1.402-9.015-4.91-16.041-13.188-20.014 9.96-6.111 15.713-15.43 15.713-26.43 0-19.25-11.224-32.391-35.775-32.391h-45.04v110h18.8v-43.541h23.852c10.384 0 15.576 5.196 17.12 17.111l3.366 26.43h5.759l-4.21-31.168c-1.145-7.358-3.692-13.394-9.094-17.517q.005.001.009-.004l5.202-1.062c6.456 4.119 9.367 10.569 10.616 18.583l4.21 31.168h6.87zm-35.638-28.875H92.134V72.114h23.851c12.627 0 18.663 5.804 18.663 16.5s-6.036 16.346-18.663 16.346"/><defs><linearGradient id="a" x1="64.182" x2="189.228" y1="5" y2="221.682" gradientUnits="userSpaceOnUse"><stop offset=".447" stop-color="#fef100"/><stop offset=".596" stop-color="#1a9900"/></linearGradient><linearGradient id="b" x1="114.583" x2="114.583" y1="55" y2="165" gradientUnits="userSpaceOnUse"><stop stop-color="#e2dbff"/><stop offset=".976" stop-color="#fbfaff"/></linearGradient></defs></svg>